HIERARCHY
ROOT Hips
{
 OFFSET 0.000000 0.000000 0.000000
 CHANNELS 6 Xposition Yposition Zposition Yrotation Xrotation Zrotation
 JOINT Chest
 {
  OFFSET 0.000000 9.585900 0.002600
  CHANNELS 3 Yrotation Xrotation Zrotation
  JOINT Chest2
  {
   OFFSET 0.000000 9.601200 -0.005300
   CHANNELS 3 Yrotation Xrotation Zrotation
   JOINT Chest3
   {
    OFFSET 0.000000 9.561800 0.000000
    CHANNELS 3 Yrotation Xrotation Zrotation
    JOINT Chest4
    {
     OFFSET 0.000000 9.552100 0.000000
     CHANNELS 3 Yrotation Xrotation Zrotation
     JOINT Neck
     {
      OFFSET 0.000000 14.453000 0.000000
      CHANNELS 3 Yrotation Xrotation Zrotation
      JOINT Head
      {
       OFFSET 0.000000 8.936500 -0.011300
       CHANNELS 3 Yrotation Xrotation Zrotation
       End Site
       {
        OFFSET 0.000000 17.073600 -0.006000
       }
      }
     }
     JOINT RightCollar
     {
      OFFSET -2.921100 9.558500 0.000000
      CHANNELS 3 Yrotation Xrotation Zrotation
      JOINT RightShoulder
      {
       OFFSET -13.519700 0.000000 0.000000
       CHANNELS 3 Yrotation Xrotation Zrotation
       JOINT RightElbow
       {
        OFFSET 0.000000 -29.696600 0.000000
        CHANNELS 3 Yrotation Xrotation Zrotation
        JOINT RightWrist
        {
         OFFSET 0.000000 -24.004700 0.000000
         CHANNELS 3 Yrotation Xrotation Zrotation
         End Site
         {
          OFFSET 0.000000 -17.728500 0.000000
         }
        }
       }
      }
     }
     JOINT LeftCollar
     {
      OFFSET 2.921100 9.558500 0.000000
      CHANNELS 3 Yrotation Xrotation Zrotation
      JOINT LeftShoulder
      {
       OFFSET 13.519700 0.000000 0.000000
       CHANNELS 3 Yrotation Xrotation Zrotation
       JOINT LeftElbow
       {
        OFFSET 0.000000 -29.696600 0.000000
        CHANNELS 3 Yrotation Xrotation Zrotation
        JOINT LeftWrist
        {
         OFFSET 0.000000 -24.004700 0.000000
         CHANNELS 3 Yrotation Xrotation Zrotation
         End Site
         {
          OFFSET 0.000000 -17.728500 0.000000
         }
        }
       }
      }
     }
    }
   }
  }
 }
 JOINT RightHip
 {
  OFFSET -7.771700 -0.012900 -0.001300
  CHANNELS 3 Yrotation Xrotation Zrotation
  JOINT RightKnee
  {
   OFFSET 0.000000 -40.869800 0.001200
   CHANNELS 3 Yrotation Xrotation Zrotation
   JOINT RightAnkle
   {
    OFFSET 0.000000 -39.717900 0.002100
    CHANNELS 3 Yrotation Xrotation Zrotation
    JOINT RightToe
    {
     OFFSET 0.000000 -4.965400 11.033500
     CHANNELS 3 Yrotation Xrotation Zrotation
     End Site
     {
      OFFSET 0.000000 -1.423100 5.872300
     }
    }
   }
  }
 }
 JOINT LeftHip
 {
  OFFSET 7.771700 -0.012900 -0.001300
  CHANNELS 3 Yrotation Xrotation Zrotation
  JOINT LeftKnee
  {
   OFFSET 0.000000 -40.869800 0.001200
   CHANNELS 3 Yrotation Xrotation Zrotation
   JOINT LeftAnkle
   {
    OFFSET 0.000000 -39.717900 0.002100
    CHANNELS 3 Yrotation Xrotation Zrotation
    JOINT LeftToe
    {
     OFFSET 0.000000 -4.965400 11.033500
     CHANNELS 3 Yrotation Xrotation Zrotation
     End Site
     {
      OFFSET 0.000000 -1.423100 5.872300
     }
    }
   }
  }
 }
}
MOTION
Frames: 15
Frame Time: 0.008333
0.000000 85.388000 0.000000 0.000000 -5.767877 0.000000 0.000000 11.653817 0.000000 0.000000 -5.885947 0.000000 0.000000 -0.000000 0.000000 0.000000 -0.000000 0.000000 0.000000 12.528835 0.000000 0.000000 0.711642 0.000000 0.000000 -0.000000 0.000000 0.000000 0.000000 -90.000000 0.000000 -2.309062 0.000000 0.000000 2.309062 0.000000 0.000000 -0.000000 0.000000 0.000000 -0.000000 90.000000 0.000000 -2.309062 0.000000 0.000000 2.309062 0.000000 0.000000 8.520406 0.000000 0.000000 1.905762 0.000000 -0.000000 -4.658285 0.000000 0.000000 -0.000000 0.000000 0.000000 8.520406 0.000000 0.000000 1.905762 0.000000 -0.000000 -4.658285 0.000000 0.000000 -0.000000 0.000000
-96.252283 62.149221 18.695157 173.868012 -49.577133 -0.886550 5.257136 26.660131 1.314718 0.776726 4.537330 0.141366 1.216604 7.170044 0.331311 3.949362 21.591709 1.497603 4.440607 17.424503 4.661811 6.623562 -3.510641 7.106146 5.988769 8.445340 6.837996 -8.520922 -11.389533 -14.853985 -100.692042 -49.786387 141.608341 -5.475211 -11.671156 -0.512527 -8.961269 6.530028 -0.665276 7.706296 -9.918846 14.736760 114.444663 -55.065922 -146.217769 12.531043 -10.990397 -7.044385 2.747431 -17.577746 -4.029867 -2.267095 60.039349 -5.946521 1.710575 -5.001159 10.142758 0.331263 -0.638738 0.115266 -4.904444 -13.599163 3.057827 32.120183 75.006240 34.786750 2.361006 -11.651791 -6.472542 0.216201 0.867158 0.068496
-96.250670 62.149510 18.689725 173.858370 -49.555262 -0.867148 5.251229 26.637996 1.307546 0.760471 4.486231 0.228296 1.215718 7.209519 0.259880 3.961561 21.531514 1.552468 4.397690 17.466601 4.626053 6.556896 -3.571652 7.157401 6.001198 8.347111 6.797374 -8.622293 -11.383954 -14.952224 -101.692813 -49.982472 142.369884 -5.193577 -11.493603 -0.314782 -8.912571 6.437123 -0.666452 7.755169 -10.092295 14.709750 116.504385 -55.386548 -147.846229 12.115775 -10.665959 -7.658742 2.733279 -17.603255 -4.050727 -2.252464 60.050343 -5.930921 1.723751 -5.012481 10.133566 0.333653 -0.636906 0.110228 -4.902557 -13.617474 3.049958 32.124067 75.006870 34.787514 2.347378 -11.655201 -6.470995 0.214348 0.863994 0.069913
-96.247120 62.150176 18.682419 173.850447 -49.537698 -0.856863 5.245055 26.599186 1.341929 0.767708 4.465116 0.236913 1.202388 7.200263 0.265313 3.971887 21.494226 1.585037 4.360854 17.445191 4.647579 6.486527 -3.543679 7.156919 6.002203 8.290233 6.759645 -8.663606 -11.343300 -15.018911 -102.759764 -50.183193 143.180969 -4.913536 -11.316594 -0.129458 -8.890073 6.349192 -0.678905 7.750146 -10.260854 14.706225 118.467483 -55.691101 -149.362246 11.719496 -10.349091 -8.207330 2.706406 -17.624416 -4.064434 -2.210924 60.062094 -5.896928 1.744012 -5.022691 10.131766 0.320034 -0.641064 0.101693 -4.909170 -13.635295 3.048714 32.152397 75.019815 34.811069 2.349251 -11.652621 -6.475724 0.198507 0.847961 0.071726
-96.242296 62.149082 18.674887 173.852932 -49.510845 -0.860341 5.258495 26.504021 1.444469 0.756517 4.482149 0.195658 1.206677 7.128862 0.322953 3.951533 21.518099 1.574046 4.329427 17.427383 4.668443 6.427936 -3.457074 7.122792 6.000341 8.233753 6.729741 -8.683356 -11.309854 -15.087055 -103.743179 -50.370442 143.916680 -4.634962 -11.147332 0.039878 -8.895876 6.261499 -0.703449 7.691092 -10.415473 14.729559 120.306158 -55.978106 -150.743030 11.332917 -10.037881 -8.697189 2.697774 -17.652184 -4.065936 -2.206544 60.071465 -5.891235 1.748848 -5.030067 10.141555 0.309147 -0.644100 0.092966 -4.916312 -13.665173 3.055805 32.178269 75.035721 34.838873 2.352321 -11.650534 -6.484280 0.200085 0.833782 0.077410
-96.237068 62.149751 18.663980 173.868383 -49.505319 -0.873342 5.266729 26.454411 1.500747 0.755472 4.466085 0.202596 1.208975 7.086506 0.349818 3.950344 21.505716 1.595399 4.297779 17.439985 4.671539 6.360676 -3.456963 7.156641 5.990871 8.178315 6.712281 -8.674806 -11.286090 -15.154572 -104.634839 -50.550534 144.565067 -4.362482 -10.988818 0.199162 -8.935366 6.174154 -0.736118 7.582593 -10.547528 14.778052 121.995371 -56.263482 -151.971838 10.954205 -9.753426 -9.120956 2.681718 -17.659491 -4.069787 -2.212867 60.090519 -5.886637 1.754895 -5.038840 10.139347 0.299438 -0.650221 0.098684 -4.928418 -13.671113 3.059751 32.214422 75.049133 34.881930 2.348440 -11.652294 -6.496988 0.210488 0.823030 0.088039
-96.236443 62.150083 18.650957 173.901399 -49.507004 -0.871461 5.253944 26.409510 1.526040 0.755088 4.448842 0.209401 1.208924 7.060785 0.360678 3.962440 21.471108 1.632381 4.272530 17.455573 4.677163 6.309274 -3.449613 7.191542 5.975497 8.126971 6.706402 -8.636813 -11.278096 -15.219528 -105.426168 -50.726972 145.119426 -4.102357 -10.842557 0.358386 -9.005972 6.087290 -0.777776 7.427198 -10.657294 14.850479 123.508811 -56.563131 -153.031726 10.598757 -9.505927 -9.481724 2.663211 -17.663511 -4.108511 -2.215403 60.126483 -5.877149 1.761757 -5.056389 10.134418 0.300009 -0.658045 0.100433 -4.944080 -13.672807 3.035909 32.238520 75.065092 34.910078 2.323483 -11.658245 -6.494358 0.249570 0.813226 0.086741
-96.234904 62.148292 18.638363 173.925389 -49.501747 -0.869880 5.253467 26.354330 1.558613 0.754944 4.431466 0.216146 1.209264 7.034864 0.371410 3.975619 21.436018 1.669280 4.255111 17.469707 4.684890 6.251788 -3.373304 7.186842 5.958462 8.077771 6.708789 -8.569347 -11.290297 -15.282474 -106.110170 -50.901313 145.574950 -3.863206 -10.707186 0.517786 -9.099337 5.999501 -0.830509 7.227547 -10.750300 14.945189 124.815166 -56.887460 -153.898614 10.286843 -9.295739 -9.800120 2.656916 -17.676965 -4.147192 -2.206667 60.163781 -5.847782 1.776200 -5.069871 10.134464 0.289139 -0.668339 0.095297 -4.954115 -13.683689 3.026715 32.284686 75.078626 34.949455 2.320378 -11.656517 -6.507173 0.255107 0.801321 0.103664
-96.231542 62.146056 18.625132 173.954392 -49.502916 -0.884967 5.260572 26.304580 1.606772 0.754847 4.415137 0.222950 1.209585 7.010477 0.382127 3.988249 21.402709 1.706213 4.244826 17.478107 4.694386 6.238521 -3.381028 7.220870 5.939343 8.024814 6.719028 -8.472399 -11.326409 -15.345383 -106.678824 -51.079482 145.925740 -3.651287 -10.577055 0.671898 -9.211735 5.904424 -0.891795 6.989435 -10.826392 15.059544 125.889876 -57.241426 -154.562053 10.027392 -9.125161 -10.072010 2.642411 -17.680340 -4.158379 -2.217839 60.193333 -5.851442 1.781872 -5.083819 10.141657 0.288016 -0.672995 0.092647 -4.970104 -13.688346 3.036272 32.303050 75.104706 34.959445 2.311186 -11.664955 -6.507209 0.259146 0.792800 0.111564
-96.228773 62.142924 18.611744 173.972745 -49.506474 -0.891444 5.268967 26.271075 1.640753 0.746274 4.419750 0.216097 1.226507 6.955352 0.413076 3.969571 21.431632 1.702887 4.280347 17.418572 4.730870 6.243330 -3.404872 7.254027 5.955162 7.905826 6.760601 -8.348904 -11.388571 -15.412195 -107.121558 -51.266718 146.168880 -3.463623 -10.451609 0.807495 -9.300340 5.747078 -0.919934 6.716062 -10.886674 15.192333 126.713074 -57.616329 -155.023618 9.811947 -8.983872 -10.272637 2.635639 -17.681579 -4.168385 -2.231049 60.222361 -5.860564 1.790363 -5.102805 10.147946 0.284435 -0.675387 0.089728 -4.974879 -13.690474 3.041841 32.301880 75.133550 34.958192 2.300941 -11.674796 -6.505019 0.271591 0.784969 0.115210
-96.219485 62.139894 18.598667 173.960022 -49.518955 -0.916651 5.303370 26.267674 1.694820 0.770094 4.353290 0.258734 1.217018 6.951143 0.412008 3.998699 21.373456 1.758984 4.264220 17.443608 4.730133 6.248074 -3.415249 7.276053 5.925220 7.876181 6.776245 -8.198588 -11.475877 -15.486211 -107.437315 -51.464278 146.304747 -3.292022 -10.330448 0.907459 -9.441386 5.665260 -1.004840 6.413140 -10.937352 15.339480 127.274962 -57.990758 -155.285836 9.624205 -8.847513 -10.389130 2.639433 -17.676594 -4.139401 -2.239183 60.249349 -5.856618 1.833894 -5.139701 10.160990 0.244196 -0.662963 0.073930 -4.968003 -13.683569 3.095220 32.377234 75.171594 35.016878 2.333583 -11.673755 -6.480359 0.228619 0.757103 0.097634
-96.221520 62.133233 18.587354 173.973271 -49.510317 -0.898686 5.299628 26.210647 1.704514 0.770324 4.330591 0.272621 1.210119 6.950275 0.411836 4.020629 21.319567 1.808009 4.259062 17.460956 4.733217 6.265774 -3.439949 7.299511 5.906682 7.836784 6.798005 -8.018489 -11.582413 -15.566716 -107.633855 -51.671327 146.336161 -3.130543 -10.204240 0.967286 -9.570755 5.580949 -1.082683 6.086824 -10.986752 15.492805 127.588051 -58.351744 -155.363075 9.451420 -8.699046 -10.414392 2.652089 -17.689294 -4.180735 -2.244265 60.270369 -5.841929 1.819560 -5.135957 10.151055 0.255830 -0.670698 0.085428 -4.960232 -13.701365 3.081691 32.372346 75.195037 35.012148 2.300371 -11.707646 -6.488400 0.268733 0.778000 0.118344
-96.220882 62.128986 18.574843 174.005836 -49.525895 -0.913434 5.293398 26.161415 1.750269 0.755487 4.356941 0.252546 1.209828 6.924364 0.427271 4.013691 21.341105 1.804142 4.295030 17.398876 4.774589 6.294048 -3.476655 7.322884 5.923276 7.712956 6.853544 -7.809105 -11.703265 -15.653210 -107.724201 -51.886821 146.275509 -2.977712 -10.068984 0.982839 -9.659060 5.437294 -1.102124 5.738272 -11.040787 15.644513 127.668744 -58.700427 -155.269375 9.275890 -8.535808 -10.346767 2.641604 -17.677730 -4.193678 -2.259983 60.299479 -5.849166 1.820765 -5.156892 10.146470 0.254291 -0.666090 0.093589 -4.967225 -13.694207 3.085573 32.359901 75.220045 35.002027 2.279140 -11.711637 -6.488504 0.286590 0.769555 0.127587
-96.219580 62.124185 18.563893 174.020225 -49.541698 -0.921675 5.285746 26.156952 1.764170 0.753448 4.364902 0.246791 1.207951 6.878241 0.455101 4.017666 21.303441 1.843173 4.308039 17.398112 4.779370 6.330942 -3.520991 7.347109 5.928654 7.657158 6.878814 -7.572129 -11.844701 -15.748771 -107.727983 -52.110629 146.135447 -2.834381 -9.928167 0.952049 -9.752270 5.356362 -1.164939 5.369029 -11.096217 15.794138 127.542343 -59.035975 -155.013557 9.079456 -8.359184 -10.199559 2.637585 -17.667804 -4.194865 -2.269926 60.326722 -5.858749 1.821242 -5.178012 10.144012 0.249176 -0.652490 0.100997 -4.959862 -13.687105 3.099763 32.394250 75.244453 35.036380 2.241534 -11.726260 -6.480154 0.295260 0.766572 0.132248
-96.218014 62.118838 18.554867 174.034137 -49.556583 -0.934315 5.279573 26.133786 1.795193 0.751191 4.357171 0.251246 1.200343 6.896845 0.441723 4.011645 21.246881 1.890484 4.328416 17.390911 4.785465 6.374181 -3.572074 7.371601 5.951771 7.605542 6.910430 -7.311856 -12.009265 -15.854644 -107.662065 -52.340765 145.926083 -2.699895 -9.785442 0.875894 -9.824416 5.279626 -1.223876 4.987715 -11.147126 15.949763 127.277596 -59.356224 -154.641627 8.865046 -8.176358 -9.996559 2.632643 -17.658366 -4.190166 -2.270740 60.350152 -5.861663 1.820098 -5.197243 10.142706 0.240857 -0.646462 0.104755 -4.955809 -13.679331 3.122166 32.411465 75.267817 35.050587 2.201783 -11.746220 -6.472895 0.314147 0.772228 0.138907
